<?xml version="1.0" encoding="UTF-8"?>
<svg id="Layer_2" xmlns="http://www.w3.org/2000/svg" viewBox="0 0 79.47 92.02">
  <defs>
    <style>
      .cls-1 {
        fill: #d24a20;
      }
    </style>
  </defs>
  <g id="Layer_9">
    <g id="Layer_1-2">
      <g>
        <path class="cls-1" d="M77.14,67.43c-6.13,11.97-15.37,18.38-27.72,19.26.14,1.24.05,2.52-.27,3.89-.14.6-.39,1.07-.71,1.45,6.11-.73,11.7-2.66,16.73-5.78,6.58-4.08,11.35-9.62,14.3-16.62l-2.33-2.18h0Z"/>
        <path class="cls-1" d="M73.69.89c-.89,1.83-2.45,2.75-4.68,2.75-1.44,0-4.04-.44-7.8-1.33-6.69-1.54-12.2-2.3-16.56-2.3C31.67,0,20.92,4.54,12.41,13.63,5.3,21.21,1.18,30.47,0,41.38c4.36-.06,8.71-.19,13.01.28.15-11.46,3.04-20.67,8.68-27.62,5.79-7.13,13.64-10.7,23.55-10.7,7.63,0,13.73,1.91,18.31,5.72,4.58,3.82,7.91,9.76,9.99,17.83h2.6V.89h-2.45Z"/>
      </g>
      <path class="cls-1" d="M15.09,71.89h-4.95v11.88c0,2.56.37,4.34,1.1,5.35.73,1.01,2.04,1.52,3.9,1.52v1.25H.14v-1.28c1.95,0,3.27-.51,3.97-1.54.69-1.03,1.03-2.84,1.03-5.45v-27.45c0-2.61-.34-4.41-1.02-5.4-.68-.99-2.01-1.48-3.98-1.48v-1.4h18.07c4.46,0,8.02,1.08,10.69,3.25,2.67,2.17,4,4.92,4,8.27,0,5.4-3.03,9.01-9.09,10.81,1.33.85,2.63,2.02,3.9,3.51s2.93,3.96,4.99,7.42c2.31,3.84,4.11,6.35,5.41,7.55s2.64,1.84,4.04,1.94v1.25h-8.83c-1.82-2.19-4.01-5.39-6.59-9.62-2.75-4.45-4.9-7.29-6.46-8.52s-3.28-1.84-5.17-1.84h0ZM14.73,49.89h-4.59v20h5.37c3.21,0,5.73-.92,7.56-2.76s2.74-4.28,2.74-7.32-1.01-5.36-3.04-7.18-4.71-2.74-8.04-2.74Z"/>
    </g>
  </g>
</svg>